<?xml version="1.0" encoding="UTF-8"?>
<svg id="Capa_2" xmlns="http://www.w3.org/2000/svg" viewBox="0 0 96.7 163.52"><defs><style>.cls-1{fill:#FBFEFF;}.cls-2{fill:#FBFEFF;}.cls-3{fill:#FBFEFF;}.cls-4{fill:#FBFEFF;}.cls-5{fill:#FBFEFF;}.cls-6{fill:#FBFEFF;}.cls-7{fill:#FBFEFF;}.cls-8{fill:#FBFEFF;}.cls-9{fill:#FBFEFF;}.cls-10{fill:#FBFEFF;}.cls-11{fill:#FBFEFF;}.cls-12{fill:#FBFEFF;}.cls-13{fill:#FBFEFF;}.cls-14{fill:#FBFEFF;}.cls-15{fill:#FBFEFF;}.cls-16{fill:#FBFEFF;}</style></defs><g id="Capa_1-2"><g><path class="cls-15" d="M44.51,121.91c-3.23,2.34-5.44,5.71-8.46,8.28-2.93,2.49-5.85,5-8.89,7.36-1.35,1.05-2.45,1.32-3.95,.17-6.93-5.3-13.5-10.98-18.67-18.08C1.86,115.98-.12,112.02,0,107.29c.19-7.1,5.48-12.31,12.65-12.38,1.37-.01,2.73,.06,4.1,.09,3.72,1.35,6.38,3.96,8.25,7.65,1.26-1.7,2.11-3.04,2.31-4.7,1.17,.46,1.82-.49,2.64-.98,1.71-1.01,3.35-2.2,5.51-1.83-.08,.19-.09,.38-.04,.57-1.14,1.43-.57,3.1-.56,4.64,.02,1.89-.76,2.78-2.58,2.85-.87,.03-1.74,.02-2.61,.05-3.76,.13-3.95,.33-3.94,4.13q.02,4.56,4.76,4.58c4.34,.02,4.58,.26,4.72,4.59,.01,.37-.04,.74-.01,1.11,.23,3.22,.65,3.59,3.85,3.32,.85-.07,1.75,.13,2.83-.51,.86-1.38,.32-3.16,.38-4.83,.14-3.53,.17-3.62,3.55-3.68,1.11-.02,2.21,0,3.31,0,.5,1.59-1.05,2.59-.82,3.98-1.54,1.81-3.12,3.59-3.79,5.96Z"/><path class="cls-14" d="M46.78,6.78c12.63-5.62,24.7-4.86,35.87,3.56,6.68,5.04,9.51,15.33,5.72,22.77-.08,.49-.76-.28-.31-.06,.07,.04,.33-.07,.33-.12,.3-7.73-2.28-14.21-8.76-18.67-6.5-4.47-13.52-4.69-20.53-1.3-4.67,2.26-8.32,5.83-11.25,10.13-.53,.78-.68,1.88-2.18,2.39,1.14-7.97,5.58-13.44,12.2-18.01-3.81-1.18-6.9,.13-10.02,.25l-1.06-.94Z"/><path class="cls-16" d="M82.18,23.44c-9.09,.05-16.97,4.96-21.24,14.02-1.86,3.94-4.18,7.62-7.06,10.93-1.89,2.18-4.02,4.05-6.62,5.36-3.71,1.87-7.35,1.87-11.02-.18-3.79-2.11-4.19-6.02-.81-8.77,1.5-1.23,3.27-1.73,5.19-1.83-.62,1.14-1.88,1.49-2.71,2.35-1.06,1.1-2.19,2.23-1.46,3.9,.71,1.62,2.3,1.74,3.82,1.76,2.33,.02,4.33-.87,6.17-2.26,4.08-3.07,6.66-7.32,9.18-11.61,1.26-2.14,2.34-4.39,3.67-6.48,4.33-6.81,12.54-10.63,22.88-7.18Z"/><path class="cls-8" d="M27.31,97.96c-.2,1.66-1.05,3-2.31,4.7-1.86-3.69-4.53-6.29-8.25-7.65-1.84-3.53-3.5-7.13-4.18-11.11-1.42-8.28,2.84-14.49,11.1-16.12,3.6-.71,7.18-.34,10.78,.1,2.6,.32,5.38,.61,6.47-2.78l1.18-.71c.16,4.41-1.73,6.47-6.37,6.7-3.21,.16-6.43-.04-9.62,.66-6.24,1.37-8.08,3.9-7.13,10.27,.62,4.14,2.6,7.71,4.89,11.12,1.1,1.64,2.29,3.22,3.43,4.83Z"/><path class="cls-8" d="M44.51,121.91c.67-2.36,2.25-4.15,3.79-5.96,2.66,1.58,5.41,3.03,7.95,4.78,1.91,1.32,3.43,1.06,5.39,.07,9.77-4.95,17.4-12.19,23.43-21.24,.68-1.02,1.41-2.02,2.12-3.03l.97,.05c-4.45,13.11-13.15,22.83-24.48,30.36-3.08,2.05-6.47,2.24-9.87,.38-3.15-1.72-6.4-3.26-9.3-5.41Z"/><path class="cls-7" d="M32.96,34.84c-1.94-3.16-1.67-6.24-1.34-9.48-3.99-2.1-7.11-5.03-8.02-9.63-.69-3.45,.1-6.68,2.03-9.61C29.56,.14,38.48-1.86,45.04,1.94c-2.82,.49-5.44,.98-7.94,1.87-7.55,2.67-9.65,7.76-6.18,14.93,.48,1,.88,2.07,2.01,2.95,3.16-4.66,7.03-8.33,13.74-8.41-7.58,5.46-12.49,12.16-13.7,21.56Z"/><path class="cls-11" d="M55.71,77.82c-4.67-7.4-5.63-14.11-2.9-21.43,4.15,1.89,8.46,2.53,12.93,1.22,3.04-.89,5.8-2.26,8.04-4.5,1.81-1.81,3.03-3.93,2.4-6.68-.29-1.27-.21-2.55,.69-3.53,4.02-4.34,5.06-9.81,5.95-15.35,.07-.43,.2-.84,.39-1.61,1.53,5.75,1.03,11.03-1.29,16.07-.96,2.09-1.7,4.09-1.46,6.39,.2,1.91-.39,3.68-.92,5.47-5.52,.85-9.67,3.53-11.84,8.86-3.9,.62-7.82,.48-12.01-.04-1.38,5.36-.73,10.33,1.35,15.2l-1.34-.06Z"/><path class="cls-6" d="M67.71,62.73c2.17-5.33,6.31-8.02,11.84-8.86,3.28,.02,6.42,.67,9.3,2.28,6.94,3.88,9.22,10.86,5.89,18.15-1.08,2.36-2.3,4.69-4.62,6.17l.04-.27-.24-.12c1.21-2.86,2.56-5.65,3-8.78,.71-5.02-2.05-9.71-6.79-11.58-1.79-.7-3.64-.85-5.49-.94-5.42-.26-8.84,2.48-9.27,7.93-.25,3.18-1.09,5.49-3.82,7.44-2.52,1.81-2.23,4.02,.1,7.52l-.04,.89c-4.41-1.97-6.13-6.02-3.26-9.43,2.26-2.68,3.03-5.38,3.09-8.6,.01-.61,.17-1.22,.26-1.82Z"/><path class="cls-13" d="M67.62,82.57l.04-.89c1.17,1,2.27,.4,3.45-.06,2.61-1.04,5.08-.58,7.93,1.08-3.76,.7-6.82,1.87-8.71,4.82-1.85,2.9-2.56,6.18-2.7,9.6-.11,2.73-.21,5.45,.19,8.3,3.69-.23,4.43-3.44,6.08-5.57,1.64-2.13,3.05-4.43,4.82-6.53-.12,4.58-1.19,8.86-3.99,12.46-1.81,2.32-4.38,3.22-7.35,2.29-3.1-.97-6.04-2.18-8.02-5.17,1.99-.47,3.29,1.47,5.06,1.02-.06-7.15-3.18-10.13-12.89-12.18,4.04-3.42,8.24-3.01,12.67-1,1.17-2.47,1.88-5.02,3.77-6.91,.49-.49-.17-.85-.34-1.25Z"/><path class="cls-4" d="M81.2,144.72c2.31-.68,3.7-.04,4.92,1.8,1.81,2.71,3.62,5.49,6.25,8.28,.76-3.76,.04-6.99,.55-10.03,1.29-.48,2.4-.29,3.77-.21v18.28c-2.22,1-3.68,.05-4.99-1.97-1.73-2.66-3.7-5.16-5.56-7.73l-.76,.23v9.2c-1.57,.84-2.77,.57-4.18,.41v-18.26Z"/><path class="cls-2" d="M20.3,144.15c5.83,.05,10.01,4.21,9.9,9.85-.11,5.62-4.45,9.66-10.25,9.51-5.64-.14-9.72-4.2-9.73-9.68-.01-5.61,4.28-9.73,10.08-9.68Zm5.49,9.63c-.02-3.21-2.53-5.67-5.71-5.6-3.01,.06-5.4,2.46-5.48,5.48-.09,3.19,2.36,5.72,5.55,5.76,3.2,.04,5.65-2.42,5.64-5.64Z"/><path class="cls-3" d="M52.83,151.3c-1.99,.31-3.6,.48-5.23-1.42-2.1-2.45-5.48-2.23-7.61-.06-2.13,2.17-2.09,5.94,.08,8.08,2.13,2.1,5.57,2.24,7.62-.23,1.59-1.92,3.19-1.97,5.21-1.51-.98,4.91-4.84,7.7-9.98,7.3-5.21-.41-8.7-4.05-8.88-9.25-.18-5.12,2.94-9.12,7.71-9.89,5.5-.89,9.57,1.61,11.08,6.97Z"/><path class="cls-3" d="M75.74,151.3c-1.99,.28-3.61,.58-5.25-1.36-2.07-2.45-5.54-2.31-7.64-.21-2.07,2.06-2.08,6.07-.02,8.16,2.06,2.09,5.61,2.25,7.64-.16,1.57-1.87,3.15-2.09,5.2-1.56-.71,4.64-4.47,7.53-9.5,7.34-5.23-.19-8.84-3.66-9.23-8.89-.39-5.1,2.61-9.31,7.27-10.23,5.53-1.09,9.71,1.34,11.53,6.92Z"/><path class="cls-9" d="M51.3,99.49c-2.04-2.8-3.99-5.68-6.16-8.38-2.11-2.64-4.45-5.1-6.46-7.83,7.11,3.26,11.68,8.71,13.88,16.19l-1.26,.02Z"/><path class="cls-10" d="M49.28,102.77c-6.81,1.03-7.09,.75-6.79-6.88,3.38,1.26,5.48,3.6,6.79,6.88Z"/><path class="cls-5" d="M72.01,40.31c-2.2,3.67-4.24,3.76-7.39,.08,2.66,.1,4.97,.35,7.39-.08Z"/><path class="cls-5" d="M46.78,6.78l1.06,.94c-1.16,.72-2.48,.87-4.31,1.4,.95-1.6,2.06-2.03,3.25-2.34Z"/><path class="cls-5" d="M42.11,64.39l-1.18,.71-.12-3.76-.06,.05c1.16,.68,1.37,1.79,1.36,2.99Z"/><path class="cls-1" d="M55.71,77.82l1.34,.06c.56,.62,1.09,1.24,.92,2.17h0c-1.45-.03-1.74-1.25-2.25-2.23Z"/><path class="cls-9" d="M88.15,96.58l-.97-.05c.28-.98,.69-1.89,1.39-2.64,.16,.28,.38,.37,.68,.22-.52,.76-.35,1.82-1.1,2.47Z"/><path class="cls-5" d="M51.3,99.49l1.26-.02c.22,.53,.49,1.07-.11,1.57-.71-.29-.98-.88-1.15-1.55Z"/><path class="cls-1" d="M45.92,26.77c-.13,.14-.26,.28-.39,.42-.07-.22-.18-.44-.21-.67-.01-.07,.16-.17,.25-.26,.11,.17,.23,.33,.34,.5Z"/><path class="cls-1" d="M88.57,93.89c-.02-.46-.04-1.1,.57-.95,.49,.12,.48,.73,.11,1.17-.3,.15-.52,.06-.68-.22Z"/><path class="cls-1" d="M40.81,61.34c-.84-.11-.9-.52-.46-1.15,.49,.3,.47,.74,.39,1.2l.06-.05Z"/><polygon class="cls-1" points="42.47 9.3 42.76 9.22 42.73 9.44 42.47 9.3"/><polygon class="cls-12" points="89.8 91.51 89.87 91.74 89.67 91.72 89.8 91.51"/><path class="cls-1" d="M90.12,80.46c-.15,.09-.4,.28-.42,.26-.27-.31-.15-.53,.21-.65l.24,.12-.04,.27Z"/><polygon class="cls-1" points="53.22 102.08 53.04 102.18 53.07 101.95 53.22 102.08"/><path class="cls-1" d="M57.97,80.05l.51,.34c-.52,.44-.41-.13-.52-.33h0Z"/></g></g></svg>